# xmcd
#
# Track frame offsets:
#	150
#	24299
#	49165
#	73268
#	97441
#	98587
#	99654
#	112940
#	126720
#	140612
#	153434
#	170404
#	186622
#	200567
#	212976
#	229903
#	246504
#
# Disc length: 3480 seconds
#
# Revision: 1
# Processed by: cddbd v1.5PL3 Copyright (c) Steve Scherf et al.
# Submitted via: CDex 1.50Beta5
#
DISCID=0c0d9611
DTITLE=ぱんだはうす - Panda Anniversary Blak
DYEAR=1900
DGENRE=Soundtrack
TTITLE0=GINA/Melody Girl (new recording version)
TTITLE1=KAORIN/恋文
TTITLE2=KUMIKO ITOH/あしたへ・・・
TTITLE3=TAKAKO KIYONO/Melody Girl
TTITLE4=A Melody of Credit
TTITLE5=Melody Girl (Intro)
TTITLE6=High in The sky
TTITLE7=Naida-Umi
TTITLE8=Melody Girl (Walking)
TTITLE9=Breeze In Unison
TTITLE10=Grace of Melody
TTITLE11=Still Time
TTITLE12=Pit-a-pat Rhythm
TTITLE13=Suite for Orchestra
TTITLE14=The Teardrop Scale
TTITLE15=In Hermony With Her Dream
TTITLE16=Starting Again
EXTD=
EXTT0=
EXTT1=
EXTT2=
EXTT3=
EXTT4=
EXTT5=
EXTT6=
EXTT7=
EXTT8=
EXTT9=
EXTT10=
EXTT11=
EXTT12=
EXTT13=
EXTT14=
EXTT15=
EXTT16=
PLAYORDER=
